PathFileType	4	(X/Y/Z)	C:/Users/opensim2020/Desktop/walking_exp_matlab/subject03_walking13_straight_01.trc	
DataRate	CameraRate	NumFrames	NumMarkers	Units	OrigDataRate	OrigDataStartFrame	OrigNumFrames	
100.00	100.00	4	46	mm	100.00	546	185	
Frame#	Time	LFHD			RFHD			LBHD			RBHD			C7			T10			CLAV			STRN			RBAK			LSHO			LUPA			LELB			LFRM			LWRA			LWRB			LFIN			RSHO			RUPA			RELB			RFRM			RWRA			RWRB			RFIN			LASI			RASI			LPSI			RPSI			LTHI			LKNE			LTIB			LANK			LHEE			LTOE			RTHI			RKNE			RTIB			RANK			RHEE			RTOE			*39			*40			*41			*42			*43			*44			*45			
		X1	Y1	Z1	X2	Y2	Z2	X3	Y3	Z3	X4	Y4	Z4	X5	Y5	Z5	X6	Y6	Z6	X7	Y7	Z7	X8	Y8	Z8	X9	Y9	Z9	X10	Y10	Z10	X11	Y11	Z11	X12	Y12	Z12	X13	Y13	Z13	X14	Y14	Z14	X15	Y15	Z15	X16	Y16	Z16	X17	Y17	Z17	X18	Y18	Z18	X19	Y19	Z19	X20	Y20	Z20	X21	Y21	Z21	X22	Y22	Z22	X23	Y23	Z23	X24	Y24	Z24	X25	Y25	Z25	X26	Y26	Z26	X27	Y27	Z27	X28	Y28	Z28	X29	Y29	Z29	X30	Y30	Z30	X31	Y31	Z31	X32	Y32	Z32	X33	Y33	Z33	X34	Y34	Z34	X35	Y35	Z35	X36	Y36	Z36	X37	Y37	Z37	X38	Y38	Z38	X39	Y39	Z39	X40	Y40	Z40	X41	Y41	Z41	X42	Y42	Z42	X43	Y43	Z43	X44	Y44	Z44	X45	Y45	Z45	X46	Y46	Z46	

1	0.000	-1036.56836	-1229.95764	1599.86609	-904.03638	-1247.11401	1593.78748	-1050.53577	-1349.44751	1538.63208	-920.28107	-1361.73743	1533.28113	-996.52887	-1373.63037	1389.49695	-1000.78180	-1445.49683	1090.01978	-992.96680	-1254.61133	1305.42102	-997.89233	-1232.78979	1132.90918	-901.56995	-1441.12476	1222.18555	-1148.14282	-1297.60840	1354.33704	-1211.03308	-1356.61792	1164.99451	-1242.07922	-1353.57068	1041.60547	-1247.63733	-1342.48132	911.94153	-1223.01196	-1331.27136	792.82971	-1270.95496	-1358.72791	800.80048	-1265.40234	-1347.53381	717.72876	-835.35675	-1304.33069	1333.82495	-764.37799	-1299.60718	1111.91638	-760.28857	-1277.13184	999.49542	-774.03589	-1251.46179	865.80688	-825.75336	-1232.96960	773.98358	-772.36926	-1239.67493	766.80377	-796.27631	-1218.85229	697.62622	-1111.65295	-1307.73303	916.37524	-881.86835	-1329.14050	896.79340	-1080.20679	-1471.99634	948.96344	-930.15649	-1478.04846	954.08887	-1186.73901	-1276.00366	637.98389	-1149.88916	-1199.19788	477.49561	-1155.29272	-1231.40564	281.15054	-1120.04053	-1236.51270	71.46080	-1085.82239	-1277.64197	31.64657	-1085.37390	-1091.87109	51.09513	-861.37000	-1456.35791	617.72418	-905.94696	-1489.02966	445.01929	-914.29938	-1585.22217	275.95938	-974.07501	-1662.93237	73.39082	-1032.48340	-1703.91211	45.48333	-959.94641	-1527.42761	30.99599																					 
2	0.010	-1036.85010	-1222.03516	1598.36609	-905.17450	-1240.04944	1592.79651	-1051.89612	-1341.72766	1536.96619	-921.54156	-1354.60181	1531.96814	-997.52155	-1365.46204	1388.20007	-1000.37640	-1440.46643	1090.27271	-993.78418	-1246.45178	1304.14514	-998.42151	-1224.91455	1131.63135	-902.25623	-1433.09302	1221.35315	-1149.16650	-1289.46167	1353.03564	-1212.69812	-1347.91309	1163.59839	-1243.56384	-1348.23792	1040.70776	-1249.62256	-1339.93201	910.79932	-1225.75916	-1332.07532	791.14618	-1273.84644	-1358.75073	800.23022	-1268.75854	-1349.90747	716.73859	-836.38885	-1296.00867	1332.64893	-764.98657	-1290.78760	1111.14502	-760.62714	-1267.65149	998.91901	-774.51337	-1239.97778	865.69489	-826.55615	-1219.21033	774.45618	-773.31921	-1226.80664	766.92603	-797.39520	-1203.73499	698.64880	-1111.89929	-1299.54663	915.50659	-882.42023	-1321.49792	895.73230	-1081.23584	-1463.94104	947.30579	-931.19397	-1470.69653	952.47021	-1187.47314	-1266.03394	637.03406	-1148.34021	-1188.44702	477.34564	-1155.08704	-1214.72791	281.17429	-1118.90149	-1217.62842	68.29985	-1086.65906	-1255.08472	30.79977	-1084.07446	-1069.51233	52.65449	-861.47937	-1450.02100	617.10406	-905.83728	-1484.27722	444.53085	-913.99451	-1582.32141	276.62204	-973.47760	-1662.47986	74.64483	-1031.90112	-1703.91809	47.95115	-959.81830	-1527.33752	30.92370																					 
3	0.020	-1038.18628	-1214.43640	1597.31543	-906.33716	-1232.78259	1591.90234	-1053.26514	-1333.84424	1535.40283	-923.08984	-1346.79187	1530.46033	-998.64355	-1357.16968	1387.09106	-1002.43378	-1429.87646	1087.94678	-995.19952	-1237.88477	1303.00208	-999.30969	-1216.73608	1130.29956	-903.01434	-1424.93372	1220.55542	-1150.27051	-1281.07007	1351.84302	-1214.44385	-1338.96326	1162.31128	-1244.97229	-1342.53455	1039.91785	-1251.34094	-1337.06897	909.82410	-1228.71118	-1331.79968	790.02252	-1276.59131	-1358.36194	799.88898	-1272.00623	-1352.14832	716.28070	-837.59839	-1287.54187	1331.48254	-765.82544	-1281.75403	1110.42688	-761.05011	-1258.12988	998.43713	-775.10004	-1228.58264	865.68555	-827.24091	-1205.89331	775.14648	-774.18951	-1214.07141	767.14471	-797.88422	-1188.99329	699.87799	-1112.30188	-1290.82190	914.77368	-882.66895	-1314.02515	894.87616	-1082.36218	-1455.50024	945.74707	-932.32440	-1463.02856	950.81378	-1187.78528	-1256.40381	635.93555	-1147.74512	-1176.33679	478.46396	-1155.65479	-1197.60461	282.07294	-1119.42236	-1196.76892	68.50041	-1087.61218	-1234.11426	30.30865	-1083.00525	-1048.57275	54.19951	-861.53809	-1443.40588	616.53644	-905.67932	-1479.24731	444.12552	-913.79279	-1579.18726	277.32632	-972.82959	-1662.01782	76.26236	-1031.13733	-1703.66040	50.20128	-959.76801	-1527.18604	30.79519																					 
4	0.030	-1039.74084	-1206.86121	1596.54919	-907.59357	-1225.21936	1591.02747	-1054.70679	-1325.78503	1534.05042	-924.40039	-1339.28491	1529.33582	-999.87640	-1348.76831	1385.93018	-1003.28992	-1421.78528	1087.10925	-996.22083	-1229.31592	1301.97009	-1000.09534	-1208.33936	1129.31519	-903.90808	-1416.49744	1219.77979	-1151.41663	-1272.43591	1350.82446	-1216.23132	-1329.77100	1161.19824	-1246.30688	-1336.46252	1039.22693	-1253.30969	-1333.76111	908.94269	-1231.21497	-1331.53650	788.86957	-1279.23254	-1357.87659	799.81311	-1275.30994	-1353.74365	716.01013	-838.69312	-1279.29407	1330.68457	-766.24835	-1272.92725	1109.88867	-761.48828	-1248.67822	998.07074	-775.67426	-1217.26855	865.78992	-827.83246	-1192.65845	775.86816	-775.02057	-1201.46643	767.49152	-798.87769	-1174.43481	701.19507	-1112.57007	-1281.72131	914.13159	-883.08612	-1306.04810	894.04541	-1083.50537	-1446.84106	944.33197	-933.47906	-1455.09155	949.24780	-1187.86975	-1246.78625	634.91028	-1146.69238	-1164.91882	478.88126	-1155.44629	-1182.37659	282.29855	-1119.82214	-1177.78247	68.71026	-1088.72937	-1214.78088	29.85975	-1081.93201	-1029.37756	55.85646	-861.61237	-1436.52148	616.03857	-905.48206	-1473.96619	443.85648	-913.64880	-1575.84070	278.24191	-972.29639	-1662.01697	78.53744	-1030.34875	-1703.24280	52.64692	-959.68671	-1527.08911	30.73444																					 
